<?xml version="1.0" encoding="iso-8859-1"?>
<!-- Uploaded to: SVG Repo, www.svgrepo.com, Generator: SVG Repo Mixer Tools -->
<!DOCTYPE svg PUBLIC "-//W3C//DTD SVG 1.1//EN" "http://www.w3.org/Graphics/SVG/1.1/DTD/svg11.dtd">
<svg fill="#000000" version="1.1" id="Capa_1" xmlns="http://www.w3.org/2000/svg" xmlns:xlink="http://www.w3.org/1999/xlink" 
	 width="800px" height="800px" viewBox="0 0 488.768 488.768"
	 xml:space="preserve">
<g>
	<path d="M243.547,184.452c-52.337,0.309-92.547-3.939-123.501-10.59c-17.767-2.711-36.937-7.716-54.766-16.621
		c-14.921-7.448-28.906-17.615-40.305-31.456c-2.945-3.573-5.574-6.757-7.929-9.687v89.226v29.333
		c3.865,73.375,213.698,69.974,228.171,69.653c52.465-0.309,92.752,3.955,123.742,10.64c17.708,2.713,36.788,7.698,54.545,16.559
		c14.928,7.454,28.901,17.633,40.303,31.463c2.873,3.49,5.494,6.648,7.927,9.586v-89.117v-29.322
		C467.854,180.739,258.018,184.131,243.547,184.452z"/>
	<path d="M471.718,411.448v-26.505c-3.763-4.777-8.396-10.179-13.962-16.943c-12.018-14.579-27.334-24.822-43.656-32
		c-26.028,11.426-63.55,20.595-117.566,22.109l74.671,46.675l-74.671,83.983C296.533,488.768,467.723,487.438,471.718,411.448z"/>
	<path d="M17.033,77.333v26.008c3.438,4.735,8.053,10.243,13.964,17.426c12.015,14.589,27.343,24.824,43.657,31.999
		c26.03-11.423,63.55-20.584,117.56-22.104l-74.666-46.673L192.214,0C192.222,0.008,21.035,1.332,17.033,77.333z"/>
</g>
</svg>